<svg width="130" height="148" viewBox="0 0 130 148"  xmlns="http://www.w3.org/2000/svg">
<g clip-path="url(#clip0_350_11)">
<path d="M27.8571 46.25H13.9286V43.9375C13.9286 19.6707 33.6897 0 58.0357 0H71.9643C96.3103 0 116.071 19.6707 116.071 43.9375V46.25H102.143V43.9375C102.143 27.3338 88.6205 13.875 71.9643 13.875H58.0357C41.3795 13.875 27.8571 27.3338 27.8571 43.9375V46.25ZM8.70536e-05 64.75C8.70536e-05 59.6336 4.15826 55.5 9.28571 55.5H120.714C125.85 55.5 130 59.6336 130 64.75C130 69.8664 125.85 74 120.714 74H119.234L112.734 135.57C111.748 142.652 106.031 148 98.8929 148H31.1071C23.9833 148 18.0056 142.652 17.2598 135.57L10.7511 74H9.28571C4.15826 74 0 69.8664 0 64.75H8.70536e-05Z" />
</g>
<defs>
<clipPath id="clip0_350_11">
<rect width="130" height="148" />
</clipPath>
</defs>
</svg>
