<svg width="60" height="58" viewBox="0 0 60 58"  xmlns="http://www.w3.org/2000/svg">
<path d="M0 47.75C0 45.6758 1.6793 44 3.75 44H10.1555C11.6016 40.6836 14.9063 38.375 18.75 38.375C22.5937 38.375 25.793 40.6836 27.3398 44H56.25C58.3242 44 60 45.6758 60 47.75C60 49.8242 58.3242 51.5 56.25 51.5H27.3398C25.793 54.8164 22.5937 57.125 18.75 57.125C14.9063 57.125 11.6016 54.8164 10.1555 51.5H3.75C1.6793 51.5 0 49.8242 0 47.75ZM22.5 47.75C22.5 45.6758 20.8242 44 18.75 44C16.6758 44 15 45.6758 15 47.75C15 49.8242 16.6758 51.5 18.75 51.5C20.8242 51.5 22.5 49.8242 22.5 47.75ZM41.25 19.625C45.0937 19.625 48.293 21.9336 49.8398 25.25H56.25C58.3242 25.25 60 26.9258 60 29C60 31.0742 58.3242 32.75 56.25 32.75H49.8398C48.293 36.0664 45.0937 38.375 41.25 38.375C37.4063 38.375 34.1016 36.0664 32.6602 32.75H3.75C1.6793 32.75 0 31.0742 0 29C0 26.9258 1.6793 25.25 3.75 25.25H32.6602C34.1016 21.9336 37.4063 19.625 41.25 19.625ZM45 29C45 26.9258 43.3242 25.25 41.25 25.25C39.1758 25.25 37.5 26.9258 37.5 29C37.5 31.0742 39.1758 32.75 41.25 32.75C43.3242 32.75 45 31.0742 45 29ZM56.25 6.5C58.3242 6.5 60 8.1793 60 10.25C60 12.3242 58.3242 14 56.25 14H31.0898C29.543 17.3164 26.3437 19.625 22.5 19.625C18.6563 19.625 15.3516 17.3164 13.9102 14H3.75C1.6793 14 0 12.3242 0 10.25C0 8.1793 1.6793 6.5 3.75 6.5H13.9102C15.3516 3.18945 18.6563 0.875 22.5 0.875C26.3437 0.875 29.543 3.18945 31.0898 6.5H56.25ZM18.75 10.25C18.75 12.3242 20.4258 14 22.5 14C24.5742 14 26.25 12.3242 26.25 10.25C26.25 8.1793 24.5742 6.5 22.5 6.5C20.4258 6.5 18.75 8.1793 18.75 10.25Z" />
</svg>
